<svg width="298" height="52" viewBox="0 0 298 52" fill="none" xmlns="http://www.w3.org/2000/svg">
<g clip-path="url(#clip0_2047_145)">
<path d="M55.4466 6.32294C65.8184 3.31896 76.6589 9.28082 79.6629 19.6526C82.6438 29.9245 76.8202 40.6805 66.5867 43.7997L65.7493 41.0492C74.5615 38.3603 79.5246 29.0487 76.8356 20.2365C74.1773 11.5088 64.9964 6.54574 56.238 9.08107L55.439 6.32294H55.4466Z" fill="#E03B3B"/>
<path d="M74.1082 4.43298C85.5249 11.747 88.8592 26.9282 81.5452 38.3526C76.7819 45.7972 68.3769 50.1073 59.5493 49.6309L59.7798 45.2902C70.9276 45.8894 80.4466 37.3385 81.0458 26.1907C81.4376 18.9228 77.8882 12.0082 71.765 8.09L74.1082 4.43298Z" fill="#1E5F8D"/>
<path d="M77.7728 31.1999C74.4078 40.5345 64.1205 45.3823 54.7782 42.0173C54.3172 41.8482 53.8562 41.6639 53.4106 41.4564L54.1021 39.9506C62.2997 43.6844 71.9723 40.0735 75.7062 31.876C75.8905 31.4688 76.0596 31.0539 76.2132 30.6313L77.7728 31.1922V31.1999Z" fill="#153C59"/>
<path d="M57.7749 46.796C45.9741 45.1135 37.6843 34.2961 39.1287 22.4568L44.1302 23.0638C43.0162 32.1756 49.4006 40.5038 58.4894 41.7945L57.7749 46.7883V46.796Z" fill="#4F93C4"/>
<path d="M46.12 38.7982C39.0441 31.1768 38.9442 19.4144 45.8895 11.6779L46.4043 12.1465C39.6972 19.6219 39.797 30.9694 46.6271 38.3295L46.12 38.8059V38.7982Z" fill="#010101"/>
<path d="M36.8467 17.1327C40.3347 6.94526 49.8767 0.0768281 60.648 0L60.6634 2.51228C50.96 2.58142 42.3629 8.76609 39.2207 17.947L36.8467 17.1327Z" fill="#153C59"/>
<path d="M80.4311 16.7793C82.1444 20.8127 82.5593 25.2765 81.6297 29.5558L77.6961 28.703C78.449 25.238 78.1109 21.6194 76.728 18.3542L80.4311 16.7793Z" fill="#9CC3DE"/>
<path d="M108.52 3.82605C97.8404 3.82605 89.0513 12.3079 88.1755 23.0638C88.1294 23.6477 88.0986 24.2393 88.0986 24.8309C88.0986 25.4224 88.1294 26.014 88.1755 26.5979C88.3598 28.8643 88.8976 31.0232 89.7274 33.0284C92.8389 40.5499 100.084 45.8357 108.52 45.8357C116.955 45.8357 124.208 40.5499 127.319 33.0284H122.74C119.844 38.537 115.088 41.9712 108.52 41.9712C99.8917 41.9712 92.0399 34.3268 92.0399 26.5979H128.864C128.91 26.014 128.94 25.4224 128.94 24.8309C128.94 13.2452 119.783 3.82605 108.52 3.82605ZM92.0399 23.0638C92.9234 15.1889 99.6152 7.6905 108.52 7.6905C117.424 7.6905 123.593 15.0814 124.676 23.0638H92.0399Z" fill="#010101"/>
<path d="M32.9669 4.16409H15.1198L13.3143 7.69819H28.9949V31.9989C28.9949 35.5023 25.9525 41.8175 16.7562 41.8175C9.71107 41.8175 6.13088 37.9915 4.45603 32.6904H0C2.62752 41.0108 7.81342 45.3132 16.7562 45.4976C27.8118 45.7204 32.9746 38.7675 32.9746 31.7684V4.16409H32.9669Z" fill="#010101"/>
<path d="M143.924 7.08355C145.606 7.11428 147.381 7.21416 149.248 7.38318C151.115 7.5522 152.936 7.85951 154.718 8.32048L154.319 12.5307C152.897 12.4999 151.261 12.4538 149.394 12.4077C147.527 12.3616 145.737 12.3309 144.024 12.3309C142.963 12.3309 142.064 12.3616 141.327 12.4308C140.582 12.4999 139.982 12.6613 139.521 12.9225C139.06 13.1837 138.722 13.5909 138.507 14.1364C138.292 14.6818 138.185 15.4348 138.185 16.3874C138.185 17.8702 138.492 18.9304 139.099 19.5528C139.706 20.1827 140.705 20.6744 142.095 21.0355L148.825 23.0177C151.53 23.8398 153.397 25.0383 154.418 26.6056C155.44 28.1729 155.955 30.2626 155.955 32.8671C155.955 34.8185 155.725 36.4165 155.264 37.6688C154.803 38.9211 154.088 39.8968 153.135 40.5883C152.175 41.2797 150.923 41.7791 149.371 42.0711C147.819 42.3707 145.952 42.5167 143.778 42.5167C142.656 42.5167 141.112 42.4475 139.153 42.3169C137.186 42.1863 134.95 41.8559 132.446 41.3258L132.845 36.8698C134.789 36.9389 136.425 36.9927 137.747 37.0465C139.068 37.0926 140.205 37.1233 141.166 37.1233H143.839C145.36 37.1233 146.544 37.0235 147.404 36.8237C148.265 36.624 148.864 36.2168 149.209 35.5868C149.555 34.9568 149.732 34.0502 149.732 32.8671C149.732 31.8452 149.609 31.0462 149.363 30.47C149.117 29.8938 148.71 29.4405 148.149 29.1102C147.588 28.7798 146.859 28.5032 145.967 28.2651L138.984 26.1369C136.41 25.3456 134.604 24.1701 133.56 22.6182C132.522 21.0663 132 18.9842 132 16.3797C132 14.436 132.23 12.838 132.691 11.601C133.152 10.3641 133.859 9.41912 134.82 8.78145C135.78 8.13609 137.009 7.69049 138.507 7.44464C140.005 7.19879 141.819 7.07587 143.931 7.07587L143.924 7.08355Z" fill="#1E5F8D"/>
<path d="M169.369 16.9867C173.295 16.9867 176.122 17.6705 177.835 19.038C179.549 20.4055 180.425 22.4261 180.463 25.0997C180.494 27.3124 179.979 28.9872 178.903 30.1243C177.828 31.2613 176.053 31.8299 173.579 31.8299H159.719V28.1191H171.95C173.072 28.1191 173.787 27.8194 174.102 27.2279C174.417 26.6363 174.57 25.9064 174.57 25.046C174.54 23.6938 174.148 22.7488 173.41 22.2264C172.665 21.6962 171.405 21.435 169.623 21.435C168.071 21.435 166.864 21.6502 166.012 22.0804C165.151 22.5106 164.552 23.2866 164.206 24.4083C163.86 25.53 163.684 27.151 163.684 29.2561C163.684 31.4995 163.899 33.2358 164.329 34.4574C164.759 35.679 165.466 36.5087 166.457 36.9543C167.448 37.3999 168.77 37.6227 170.414 37.6227C171.635 37.6227 173.049 37.5766 174.647 37.4767C176.245 37.3769 177.789 37.2463 179.28 37.0772L179.871 40.8879C178.98 41.249 177.958 41.5486 176.798 41.7791C175.646 42.0096 174.447 42.1863 173.21 42.3015C171.974 42.4168 170.806 42.4782 169.722 42.4782C166.749 42.4782 164.368 42.0403 162.57 41.1645C160.772 40.2886 159.466 38.9134 158.659 37.0311C157.853 35.1488 157.445 32.7211 157.445 29.7555C157.445 26.5518 157.853 24.0241 158.659 22.1572C159.466 20.2903 160.757 18.9612 162.524 18.1698C164.291 17.3785 166.572 16.979 169.377 16.979L169.369 16.9867Z" fill="#1E5F8D"/>
<path d="M193.824 16.9867C194.646 16.9867 195.56 17.0174 196.543 17.0866C197.534 17.1557 198.541 17.2863 199.563 17.4861C200.584 17.6858 201.506 17.9624 202.336 18.3312L201.645 22.0958C200.423 22.0266 199.209 21.9805 198.003 21.9498C196.797 21.9191 195.752 21.9037 194.861 21.9037C193.178 21.9037 191.849 22.1265 190.873 22.5721C189.898 23.0177 189.199 23.809 188.768 24.9461C188.338 26.0831 188.123 27.6812 188.123 29.7248C188.123 31.7684 188.338 33.3664 188.768 34.5035C189.199 35.6406 189.898 36.4396 190.873 36.9005C191.849 37.3615 193.178 37.592 194.861 37.592C195.352 37.592 196.005 37.5766 196.812 37.5459C197.619 37.5152 198.495 37.4614 199.44 37.3999C200.377 37.3308 201.299 37.2539 202.19 37.1541L202.782 41.0185C201.491 41.5486 200.062 41.9251 198.472 42.1556C196.889 42.3861 195.322 42.5013 193.77 42.5013C190.866 42.5013 188.538 42.0864 186.786 41.2644C185.034 40.4423 183.774 39.0978 182.998 37.2309C182.223 35.364 181.838 32.8671 181.838 29.7325C181.838 26.5979 182.238 24.101 183.029 22.2341C183.821 20.3671 185.088 19.0303 186.84 18.2236C188.592 17.4169 190.919 17.0097 193.824 17.0097V16.9867Z" fill="#1E5F8D"/>
<path d="M210.611 17.5783V34.0118C210.58 35.2334 210.818 36.1092 211.325 36.6393C211.84 37.1694 212.67 37.4306 213.822 37.4306C214.974 37.4306 216.135 37.1848 217.287 36.6854C218.439 36.1937 219.845 35.4485 221.497 34.4574L222.089 38.0222C220.237 39.505 218.455 40.6267 216.741 41.3873C215.028 42.1479 213.246 42.5243 211.394 42.5243C206.869 42.5243 204.61 40.2963 204.61 35.8403V17.5706H210.603L210.611 17.5783ZM226.898 17.5783V41.8867H222.143L221.497 37.1848L220.906 36.4933V17.5783H226.898Z" fill="#1E5F8D"/>
<path d="M235.365 17.5783L236.156 22.3339L236.702 23.0254V41.8867H230.709V17.5783H235.365ZM247.242 16.9867L246.651 22.5337H244.914C243.631 22.5337 242.325 22.7488 241.004 23.179C239.683 23.6093 238.031 24.2546 236.056 25.1074L235.657 21.5887C237.37 20.1366 239.122 19.0073 240.904 18.2006C242.686 17.3939 244.4 16.9867 246.052 16.9867H247.242Z" fill="#1E5F8D"/>
<path d="M252.889 7.03745C254.08 7.03745 254.672 7.62902 254.672 8.81986V11.5934C254.672 12.7842 254.08 13.3758 252.889 13.3758H250.216C249.025 13.3758 248.433 12.7842 248.433 11.5934V8.81986C248.433 7.62902 249.025 7.03745 250.216 7.03745H252.889ZM254.526 17.5783V41.8867H248.587V17.5783H254.526Z" fill="#1E5F8D"/>
<path d="M273.778 17.5783V21.7347H256.254V17.8241L261.01 17.5783H273.778ZM266.549 10.6484V34.5573C266.549 35.5484 266.772 36.2629 267.217 36.7085C267.663 37.1541 268.431 37.3769 269.522 37.3769H272.887L273.533 41.5871C272.972 41.7484 272.296 41.902 271.504 42.0327C270.713 42.1633 269.937 42.2555 269.176 42.3016C268.416 42.3477 267.77 42.3784 267.248 42.3784C265.135 42.3784 263.491 41.8099 262.323 40.6728C261.148 39.5357 260.564 37.8916 260.564 35.7481V10.6484H266.557H266.549Z" fill="#1E5F8D"/>
<path d="M278.334 17.5783L283.728 34.3114C283.889 34.8723 284.043 35.4408 284.173 36.017C284.304 36.5932 284.419 37.1617 284.519 37.7226H285.756L283.874 41.879H282.291C281.83 41.879 281.415 41.7484 281.054 41.4795C280.693 41.2183 280.447 40.8495 280.309 40.3885L271.942 17.5629H278.327L278.334 17.5783ZM297.941 17.5783L288.829 42.6319C288.399 43.7843 287.861 44.9367 287.224 46.0738C286.578 47.2109 285.764 48.2404 284.773 49.17C283.782 50.0919 282.614 50.8218 281.254 51.3442C279.902 51.8743 278.334 52.0664 276.552 51.9358L276.06 48.371C278.043 47.8101 279.587 47.0495 280.693 46.0969C281.799 45.1365 282.668 43.9149 283.29 42.4322L284.627 39.2668C284.926 38.5447 285.211 37.7072 285.495 36.7699C285.771 35.8326 286.017 35.0106 286.209 34.3191L291.503 17.5859H297.941V17.5783Z" fill="#1E5F8D"/>
</g>
<defs>
<clipPath id="clip0_2047_145">
<rect width="298" height="52" fill="white"/>
</clipPath>
</defs>
</svg>
